# xmcd
#
# Track frame offsets:
#	150
#	14452
#	28907
#	43655
#	55836
#	73105
#	86736
#	99985
#	116779
#	132040
#	148576
#	164626
#	178659
#	193180
#	213579
#	227876
#
# Disc length: 3221 seconds
#
# Revision: 0
# Processed by: cddbd v1.5.2PL0 Copyright (c) Steve Scherf et al.
# Submitted via: audiograbber 1.83.01
#
DISCID=f00c9310
DTITLE=Enzian and Almenrausch - Enzian and Almenrausch Vol 1
DYEAR=2003
DGENRE=Ballermann
TTITLE0=Nicki Krausel - I wü zum Ballermann
TTITLE1=Ballerarisches Lesben Quartet - Enzian und Jagatee
TTITLE2=Rafaela Pegel - I brauch den Pulverschnee
TTITLE3=Manuela Arthego - Misthaufen-Most saufen
TTITLE4=Ausseer Hardbradler - Hümmüblau
TTITLE5=Der Seemann - Seemann lass das träumen
TTITLE6=Inselfeger - I bin a auf Ibiza
TTITLE7=The Original Fast Remix Poidln - Alle meine Lieda
TTITLE8=Zillertaler Weltenbummler - Die ganze Welt ist heute da (Austria)
TTITLE9=Elke - Die Rose vom Wörthersee
TTITLE10=Elke Benz - Er gehört zu mir
TTITLE11=Alexander Herz - Ich liebe dich
TTITLE12=Die Larcher Musi - Der steirische Brauch
TTITLE13=Can B. - Heidi
TTITLE14=Sabine - Meine Oma fährt im Hühnerstall Motorrad
TTITLE15=Die Gärtner - Gabi
EXTD=
EXTT0=
EXTT1=
EXTT2=
EXTT3=
EXTT4=
EXTT5=
EXTT6=
EXTT7=
EXTT8=
EXTT9=
EXTT10=
EXTT11=
EXTT12=
EXTT13=
EXTT14=
EXTT15=
PLAYORDER=
